<svg id="kf" xmlns="http://www.w3.org/2000/svg" viewBox="0 0 64 64"><defs><style>.cls-1{fill:#fff;}.cls-2{fill:none;stroke:#000;stroke-width:1.43px;}</style></defs><title>katefiedler_initials</title><rect class="cls-1" width="64" height="64"/><path class="cls-2" d="M5.81,6.86l2.1,0a1.93,1.93,0,0,1,1.54.61,1.6,1.6,0,0,1,.32.93c0,.38,0,.81,0,1.28v22c0,.24,0,.49,0,.75a2.66,2.66,0,0,0,0,.75v.57A3.14,3.14,0,0,0,10,35a.69.69,0,0,0,.21.32,2.15,2.15,0,0,1,.29.25,1.27,1.27,0,0,0,1-.18l.68-.54a2.79,2.79,0,0,0,.57-.57,3,3,0,0,1,.5-.5,4.47,4.47,0,0,0,1-.82q.43-.47.93-1c.24-.24.47-.45.68-.65s.44-.4.68-.64a1.64,1.64,0,0,0,.39-.36l.32-.35a.85.85,0,0,1,.22-.18.71.71,0,0,0,.21-.18,4.86,4.86,0,0,1,.57-.61l.65-.53a2.28,2.28,0,0,1,.35-.43l.43-.43a10.08,10.08,0,0,0,1.18-1.07A10.08,10.08,0,0,1,22,25.5c.14-.15.29-.3.43-.47s.28-.32.43-.46A11.12,11.12,0,0,0,24.52,23a7.52,7.52,0,0,1,1.71-1.5A3.49,3.49,0,0,1,27.7,21a16.87,16.87,0,0,1,2-.1,6.51,6.51,0,0,0,.75,0,2.09,2.09,0,0,1,.68,0h.79c.38.09.69.17.93.25s.35.32.35.75a.69.69,0,0,0-.18.35.61.61,0,0,1-.17.36,2.24,2.24,0,0,1-.4.43l-.46.36a.71.71,0,0,0-.18.21.91.91,0,0,1-.18.21,1.61,1.61,0,0,0-.5.4,1.71,1.71,0,0,1-.43.39,3.89,3.89,0,0,1-.43.39,1.65,1.65,0,0,0-.35.4,8.63,8.63,0,0,0-1.07.92,9.47,9.47,0,0,1-1.08.93l-.35.36a2.28,2.28,0,0,0-.36.43,7.69,7.69,0,0,0-1.29,1.11,8.52,8.52,0,0,1-1.28,1.1,2,2,0,0,1-.36.4,2.19,2.19,0,0,0-.36.39,7.36,7.36,0,0,0-.64.57,7.36,7.36,0,0,1-.64.57,6.57,6.57,0,0,0-.68.61,3.84,3.84,0,0,0-.54.68,2.67,2.67,0,0,0-.35.5.73.73,0,0,0-.07.71A2.81,2.81,0,0,0,21.34,36a12.63,12.63,0,0,1,.75,1.07c.38.52.74,1.06,1.07,1.61s.67,1.08,1,1.6c1.33,2,2.65,3.88,3.93,5.79s2.57,3.86,3.86,5.86q.42.57.78,1.14c.24.38.5.76.79,1.14s.38.56.57.82a4.56,4.56,0,0,1,.5.9,1.79,1.79,0,0,1,.22,1,.77.77,0,0,1-.65.61,2.4,2.4,0,0,1-.85.14h-.93c-.67,0-1.35,0-2,0a3.92,3.92,0,0,1-1.68-.25A4.09,4.09,0,0,1,27,55.82q-.75-1.24-1.32-2c-1.09-1.66-2.17-3.29-3.21-4.89s-2.12-3.2-3.22-4.82L18,42.1c-.4-.64-.84-1.29-1.32-2a4.77,4.77,0,0,0-.6-.64,1,1,0,0,0-1-.22,2.08,2.08,0,0,0-1,.54c-.27.26-.54.51-.82.75a5.11,5.11,0,0,0-.68.64,5.81,5.81,0,0,1-.68.64,6.61,6.61,0,0,0-1.32,1.25,4.06,4.06,0,0,0-.75,1.75,5.46,5.46,0,0,1,0,.58,5.44,5.44,0,0,0,0,.57,3.25,3.25,0,0,0,0,.85c0,.34,0,.65,0,.93v7.79a2.92,2.92,0,0,1-.36,1.57,1.5,1.5,0,0,1-1.22.54c-.57,0-1.16,0-1.78,0H5.66A2,2,0,0,1,5,57.57a1.37,1.37,0,0,1-1-1.22,19.23,19.23,0,0,1-.1-2.14V10.64c0-.52,0-1.07,0-1.64a2.15,2.15,0,0,1,.32-1.36,1.66,1.66,0,0,1,1.07-.71.42.42,0,0,1,.29,0A.43.43,0,0,0,5.81,6.86Z"/><path class="cls-2" d="M55,6.28c.86,0,1.76,0,2.71,0a2.48,2.48,0,0,1,2,.86,2.38,2.38,0,0,1,.36,1,10.74,10.74,0,0,1,.07,1.32A2.78,2.78,0,0,1,59.8,11a1.31,1.31,0,0,1-.82.46,6.07,6.07,0,0,1-1.18.11c-.42,0-.86,0-1.32,0a6.29,6.29,0,0,0-1.18,0,3.84,3.84,0,0,0-2.6,1.82,8.82,8.82,0,0,0-.61,3.75,7.57,7.57,0,0,1-.07,1,2,2,0,0,0,.07,1,2.12,2.12,0,0,0,.93,1.5,4.3,4.3,0,0,0,1.46.21h2.75a.49.49,0,0,0,.43.08.45.45,0,0,1,.43.07,1.32,1.32,0,0,1,.93.82,4.75,4.75,0,0,1,.21,1.53,3,3,0,0,0-.07.58v.57a1.88,1.88,0,0,1-.93,1.43,5,5,0,0,1-2.39.17,6.44,6.44,0,0,0-2.46.11,1.46,1.46,0,0,0-.86.54,2.8,2.8,0,0,0-.43,1A2.87,2.87,0,0,0,52,28.93a10.29,10.29,0,0,1,.07,1.21V53.57c0,.28,0,.59,0,.93a2,2,0,0,1-.11.85v.58c-.05.19-.1.38-.14.57a1.62,1.62,0,0,1-.22.5,1.43,1.43,0,0,1-1.07.57,15.24,15.24,0,0,1-1.57.07H47.66c-.24-.09-.46-.18-.68-.25a1,1,0,0,1-.53-.46,3.16,3.16,0,0,1-.29-.93v-.5a1.74,1.74,0,0,1-.11-.75,6.51,6.51,0,0,0,0-.75V31.64c0-.52,0-1.07,0-1.64s0-1.11,0-1.61a3.77,3.77,0,0,0-.29-1.32,1.45,1.45,0,0,0-.82-.79,2.19,2.19,0,0,0-1-.21H41.84a3.13,3.13,0,0,1-1-.14A1.81,1.81,0,0,1,40,24.71a3.12,3.12,0,0,1-.07-.64v-.64a5,5,0,0,1,.21-1.61A1.3,1.3,0,0,1,41,21a2.56,2.56,0,0,1,1.18-.18q.67,0,1.35,0a4.55,4.55,0,0,0,1.22-.14,1.64,1.64,0,0,0,.89-.57,2.58,2.58,0,0,0,.47-1.79c0-.8,0-1.57,0-2.28a18.83,18.83,0,0,1,.18-2.68,8.82,8.82,0,0,1,.61-2.25A7.5,7.5,0,0,1,49,8.36a9.23,9.23,0,0,1,3.18-1.65,4.39,4.39,0,0,1,.89-.18,5,5,0,0,0,1-.17,1,1,0,0,1,.5,0A1,1,0,0,0,55,6.28Z"/></svg>